<svg width="396" height="76" viewBox="0 0 396 76" fill="none" xmlns="http://www.w3.org/2000/svg">
<rect x="8" width="380" height="4" fill="#902F00"/>
<rect y="8" width="4" height="8" fill="#902F00"/>
<rect width="4" height="7" transform="matrix(-1 0 0 1 396 9)" fill="#902F00"/>
<rect x="4" y="12" width="8" height="4" fill="#E27A39"/>
<rect width="8" height="4" transform="matrix(-1 0 0 1 392 12)" fill="#E27A39"/>
<rect x="12" y="4" width="372" height="8" fill="#E27A39"/>
<rect x="4" y="4" width="8" height="8" fill="#BF4600"/>
<rect width="8" height="8" transform="matrix(-1 0 0 1 392 4)" fill="#BF4600"/>
<rect x="12" y="12" width="372" height="4" fill="#BF4600"/>
<rect y="16" width="4" height="44" fill="#902F00"/>
<rect width="4" height="44" transform="matrix(-1 0 0 1 396 16)" fill="#902F00"/>
<rect x="4" y="16" width="8" height="44" fill="#E27A39"/>
<rect width="8" height="44" transform="matrix(-1 0 0 1 392 16)" fill="#E27A39"/>
<rect x="12" y="16" width="4" height="44" fill="#BF4600"/>
<rect width="4" height="44" transform="matrix(-1 0 0 1 384 16)" fill="#BF4600"/>
<rect x="16" y="16" width="364" height="44" fill="#FED888"/>
<rect width="380" height="4" transform="matrix(1 0 0 -1 8 76)" fill="#902F00"/>
<rect width="4" height="8" transform="matrix(1 0 0 -1 0 68)" fill="#902F00"/>
<rect x="396" y="67" width="4" height="7" transform="rotate(-180 396 67)" fill="#902F00"/>
<rect width="8" height="4" transform="matrix(1 0 0 -1 4 64)" fill="#E27A39"/>
<rect x="392" y="64" width="8" height="4" transform="rotate(-180 392 64)" fill="#E27A39"/>
<rect width="372" height="8" transform="matrix(1 0 0 -1 12 72)" fill="#E27A39"/>
<rect width="8" height="8" transform="matrix(1 0 0 -1 4 72)" fill="#BF4600"/>
<rect x="392" y="72" width="8" height="8" transform="rotate(-180 392 72)" fill="#BF4600"/>
<rect width="372" height="4" transform="matrix(1 0 0 -1 12 64)" fill="#BF4600"/>
</svg>
