<svg width="332" height="44" viewBox="0 0 332 44" fill="none" xmlns="http://www.w3.org/2000/svg">
<rect x="12" y="4" width="308" height="4" fill="black" style="fill:black;fill-opacity:1;"/>
<rect x="12" y="40" width="308" height="4" fill="black" style="fill:black;fill-opacity:1;"/>
<rect x="8" y="8" width="4" height="4" fill="black" style="fill:black;fill-opacity:1;"/>
<rect x="8" y="36" width="4" height="4" fill="black" style="fill:black;fill-opacity:1;"/>
<rect x="4" y="12" width="4" height="4" fill="black" style="fill:black;fill-opacity:1;"/>
<rect x="4" y="32" width="4" height="4" fill="black" style="fill:black;fill-opacity:1;"/>
<rect y="16" width="4" height="16" fill="black" style="fill:black;fill-opacity:1;"/>
<rect x="320" y="8" width="4" height="4" fill="black" style="fill:black;fill-opacity:1;"/>
<rect x="320" y="36" width="4" height="4" fill="black" style="fill:black;fill-opacity:1;"/>
<rect x="324" y="12" width="4" height="4" fill="black" style="fill:black;fill-opacity:1;"/>
<rect x="324" y="32" width="4" height="4" fill="black" style="fill:black;fill-opacity:1;"/>
<path fill-rule="evenodd" clip-rule="evenodd" d="M12 8H320V12H324V16H328V28H324V32H320V36H12V32H8V28H4V16H8V12H12V8Z" fill="#E4531F" style="fill:#E4531F;fill:color(display-p3 0.8941 0.3255 0.1216);fill-opacity:1;"/>
<rect x="4" y="28" width="4" height="4" fill="#E4531F" style="fill:#E4531F;fill:color(display-p3 0.8941 0.3255 0.1216);fill-opacity:1;"/>
<rect x="324" y="28" width="4" height="4" fill="#E4531F" style="fill:#E4531F;fill:color(display-p3 0.8941 0.3255 0.1216);fill-opacity:1;"/>
<rect x="12" y="36" width="308" height="4" fill="#E4531F" style="fill:#E4531F;fill:color(display-p3 0.8941 0.3255 0.1216);fill-opacity:1;"/>
<rect x="8" y="32" width="4" height="4" fill="#E4531F" style="fill:#E4531F;fill:color(display-p3 0.8941 0.3255 0.1216);fill-opacity:1;"/>
<rect x="320" y="32" width="4" height="4" fill="#E4531F" style="fill:#E4531F;fill:color(display-p3 0.8941 0.3255 0.1216);fill-opacity:1;"/>
<path d="M328 16H332V32H328V16Z" fill="black" style="fill:black;fill-opacity:1;"/>
</svg>
