<svg width="56" height="32" viewBox="0 0 56 32" fill="none" xmlns="http://www.w3.org/2000/svg">
<rect y="4" width="2" height="24" fill="black"/>
<rect x="54" y="4" width="2" height="24" fill="black"/>
<rect x="4" y="30" width="48" height="2" fill="black"/>
<rect x="4" width="48" height="2" fill="black"/>
<rect x="2" y="2" width="2" height="2" fill="black"/>
<rect x="52" y="2" width="2" height="2" fill="black"/>
<rect x="2" y="28" width="2" height="2" fill="black"/>
<rect x="52" y="28" width="2" height="2" fill="black"/>
<rect x="4" y="2" width="48" height="2" fill="#410100"/>
<rect x="4" y="28" width="48" height="2" fill="#800000"/>
<rect x="2" y="6" width="2" height="22" fill="#800000"/>
<rect x="52" y="26" width="2" height="2" fill="#800000"/>
<rect x="52" y="4" width="2" height="2" fill="#410100"/>
<rect x="52" y="6" width="2" height="4" fill="#410100"/>
<rect x="50" y="4" width="2" height="2" fill="#410100"/>
<rect x="2" y="4" width="2" height="2" fill="#410100"/>
<rect x="52" y="10" width="2" height="16" fill="#410100"/>
<path fill-rule="evenodd" clip-rule="evenodd" d="M50 4H4V28H50H52V6H50V4Z" fill="#640001"/>
<path d="M22 17V16H21V15H19V16H18V17H14V16H17V15H18V14H19V11H21V14H22V15H23V16H26V17H22ZM27 18V19H21V23H19V19H13V18H27ZM37 16V17H35V16H34V15H32V16H31V17H29V16H30V15H31V14H32V11H29V10H37V11H34V14H35V15H36V16H37ZM42 10V17H40V14H37V13H40V10H42ZM30 22V19H32V18H40V19H42V22H40V23H32V22H30ZM33 19V20H32V21H33V22H39V21H40V20H39V19H33Z" fill="white"/>
</svg>
