<svg width="32" height="32" viewBox="0 0 32 32" fill="none" xmlns="http://www.w3.org/2000/svg">
<rect y="4" width="2" height="24" fill="black"/>
<rect x="4" y="30" width="24" height="2" fill="black"/>
<rect x="4" width="24" height="2" fill="black"/>
<rect x="2" y="2" width="2" height="2" fill="black"/>
<rect x="2" y="28" width="2" height="2" fill="black"/>
<rect x="4" y="2" width="24" height="2" fill="#FF8C00"/>
<rect x="4" y="28" width="24" height="2" fill="#BE751C"/>
<rect x="2" y="6" width="2" height="22" fill="#BE751C"/>
<rect x="28" y="26" width="2" height="2" fill="#BE751C"/>
<rect x="28" y="4" width="2" height="2" fill="#FF8C00"/>
<rect x="2" y="4" width="2" height="2" fill="#FF8C00"/>
<rect x="28" y="10" width="2" height="16" fill="#FF8C00"/>
<path fill-rule="evenodd" clip-rule="evenodd" d="M26 4H4V28H26H28V6H26V4Z" fill="#FFAD49"/>
<rect x="30" y="4" width="2" height="24" fill="black"/>
<rect x="28" y="2" width="2" height="2" fill="black"/>
<rect x="28" y="28" width="2" height="2" fill="black"/>
<path fill-rule="evenodd" clip-rule="evenodd" d="M14 8H18V10H20V12H22V14H24V16H21V24H11V16H8V14H10V12H12V10H14V8Z" fill="#9A5C11"/>
<rect x="28" y="6" width="2" height="4" fill="white"/>
<rect x="26" y="4" width="2" height="2" fill="white"/>
</svg>
