<svg width="332" height="44" viewBox="0 0 332 44" fill="none" xmlns="http://www.w3.org/2000/svg">
<rect x="12" width="308" height="4" fill="black" style="fill:black;fill-opacity:1;"/>
<rect x="12" y="40" width="308" height="4" fill="black" style="fill:black;fill-opacity:1;"/>
<rect x="8" y="4" width="4" height="4" fill="black" style="fill:black;fill-opacity:1;"/>
<rect x="8" y="36" width="4" height="4" fill="black" style="fill:black;fill-opacity:1;"/>
<rect x="4" y="8" width="4" height="4" fill="black" style="fill:black;fill-opacity:1;"/>
<rect x="4" y="32" width="4" height="4" fill="black" style="fill:black;fill-opacity:1;"/>
<rect y="12" width="4" height="20" fill="black" style="fill:black;fill-opacity:1;"/>
<rect x="320" y="4" width="4" height="4" fill="black" style="fill:black;fill-opacity:1;"/>
<rect x="320" y="36" width="4" height="4" fill="black" style="fill:black;fill-opacity:1;"/>
<rect x="324" y="8" width="4" height="4" fill="black" style="fill:black;fill-opacity:1;"/>
<rect x="324" y="32" width="4" height="4" fill="black" style="fill:black;fill-opacity:1;"/>
<path fill-rule="evenodd" clip-rule="evenodd" d="M12 4H320V8H324V12H328V28H324V32H320V36H12V32H8V28H4V12H8V8H12V4Z" fill="#F2F2F2" style="fill:#F2F2F2;fill:color(display-p3 0.9490 0.9490 0.9490);fill-opacity:1;"/>
<rect x="4" y="28" width="4" height="4" fill="#BBBBBB" style="fill:#BBBBBB;fill:color(display-p3 0.7346 0.7346 0.7346);fill-opacity:1;"/>
<rect x="324" y="28" width="4" height="4" fill="#BBBBBB" style="fill:#BBBBBB;fill:color(display-p3 0.7346 0.7346 0.7346);fill-opacity:1;"/>
<rect x="12" y="36" width="308" height="4" fill="#BBBBBB" style="fill:#BBBBBB;fill:color(display-p3 0.7346 0.7346 0.7346);fill-opacity:1;"/>
<rect x="8" y="32" width="4" height="4" fill="#BBBBBB" style="fill:#BBBBBB;fill:color(display-p3 0.7346 0.7346 0.7346);fill-opacity:1;"/>
<rect x="320" y="32" width="4" height="4" fill="#BBBBBB" style="fill:#BBBBBB;fill:color(display-p3 0.7346 0.7346 0.7346);fill-opacity:1;"/>
<path d="M328 12H332V32H328V12Z" fill="black" style="fill:black;fill-opacity:1;"/>
</svg>
