<svg width="44" height="48" viewBox="0 0 44 48" fill="none" xmlns="http://www.w3.org/2000/svg">
<rect x="12" width="20" height="4" fill="black"/>
<rect x="12" y="44" width="20" height="4" fill="black"/>
<rect x="8" y="4" width="4" height="4" fill="black"/>
<rect x="8" y="40" width="4" height="4" fill="black"/>
<rect x="4" y="8" width="4" height="4" fill="black"/>
<rect x="4" y="36" width="4" height="4" fill="black"/>
<rect y="12" width="4" height="24" fill="black"/>
<rect x="12" y="4" width="20" height="4" fill="#F2F2F2"/>
<rect x="8" y="8" width="28" height="4" fill="#F2F2F2"/>
<rect x="8" y="32" width="28" height="4" fill="#F2F2F2"/>
<rect x="12" y="36" width="20" height="4" fill="#F2F2F2"/>
<rect x="4" y="12" width="40" height="20" fill="#F2F2F2"/>
<rect x="4" y="32" width="4" height="4" fill="#BBBBBB"/>
<rect x="36" y="32" width="4" height="4" fill="#BBBBBB"/>
<rect x="12" y="40" width="20" height="4" fill="#BBBBBB"/>
<rect x="8" y="36" width="4" height="4" fill="#BBBBBB"/>
<rect x="32" y="36" width="4" height="4" fill="#BBBBBB"/>
<rect x="32" y="4" width="4" height="4" fill="black"/>
<rect x="32" y="40" width="4" height="4" fill="black"/>
<rect x="36" y="8" width="4" height="4" fill="black"/>
<rect x="36" y="36" width="4" height="4" fill="black"/>
<rect x="40" y="12" width="4" height="24" fill="black"/>
<rect x="16" y="12" width="12" height="4" fill="black"/>
<rect x="16" y="24" width="4" height="4" fill="black"/>
<rect x="24" y="16" width="4" height="4" fill="black"/>
<rect x="16" y="20" width="12" height="4" fill="black"/>
<rect x="16" y="28" width="12" height="4" fill="black"/>
</svg>
