<svg width="412" height="488" viewBox="0 0 412 488" fill="none" xmlns="http://www.w3.org/2000/svg">
<path d="M56 8H64V16H72V32H80V40H64V32H56V24H48V16H40V24H24V40H0V48H-8V56H-16V32H-8V24H8V32H16V16H24V8H32V0H56V8ZM104 40H96V32H104V40ZM96 32H80V24H96V32Z" fill="#F1FAFF"/>
<path d="M48 24H56V32H64V40H80V32H96V40H112V32H128V40H144V48H128V56H-8V48H0V40H24V24H40V16H48V24Z" fill="#D7EDFC"/>
<path d="M-16 56H128V48H152V56H160V64H-32V56H-24V48H-16V56Z" fill="#B0DEF6"/>
<path d="M320 328H328V336H336V352H344V360H328V352H320V344H312V336H304V344H288V360H264V368H256V376H248V352H256V344H272V352H280V336H288V328H296V320H320V328ZM368 360H360V352H368V360ZM360 352H344V344H360V352Z" fill="#F1FAFF"/>
<path d="M312 344H320V352H328V360H344V352H360V360H376V352H392V360H408V368H392V376H256V368H264V360H288V344H304V336H312V344Z" fill="#D7EDFC"/>
<path d="M248 376H392V368H416V376H424V384H232V376H240V368H248V376Z" fill="#B0DEF6"/>
<path d="M184 312H72V304H64V288H72V296H80V304H120V296H152V304H160V296H176V304H184V312Z" fill="#B0DEF6"/>
<path d="M136 288H144V296H120V304H80V296H72V288H112V280H136V288ZM160 304H152V288H168V296H160V304Z" fill="#D7EDFC"/>
<path d="M184 304H176V296H184V304ZM152 296H144V288H152V296ZM176 296H168V288H176V296ZM112 288H80V280H104V272H112V264H128V272H136V280H112V288ZM144 288H136V280H144V288ZM168 288H152V280H168V288Z" fill="#F1FAFF"/>
<path d="M64 424H-48V416H-56V400H-48V408H-40V416H0V408H32V416H40V408H56V416H64V424Z" fill="#B0DEF6"/>
<path d="M16 400H24V408H0V416H-40V408H-48V400H-8V392H16V400ZM40 416H32V400H48V408H40V416Z" fill="#D7EDFC"/>
<path d="M64 416H56V408H64V416ZM32 408H24V400H32V408ZM56 408H48V400H56V408ZM-8 400H-40V392H-16V384H-8V376H8V384H16V392H-8V400ZM24 400H16V392H24V400ZM48 400H32V392H48V400Z" fill="#F1FAFF"/>
<path d="M410 32H418V24H426V32H434V40H370V32H386V24H410V32Z" fill="#B0DEF6"/>
<path d="M386 32H378V24H386V32ZM418 32H410V24H402V16H418V32Z" fill="#D7EDFC"/>
<path d="M434 32H426V24H434V32ZM402 24H394V16H402V24ZM426 24H418V16H426V24ZM418 16H402V8H418V16Z" fill="#F1FAFF"/>
<path d="M260 96H268V104H276V120H284V128H268V120H260V112H252V104H244V112H228V128H204V136H196V144H188V120H196V112H212V120H220V104H228V96H236V88H260V96ZM308 128H300V120H308V128ZM300 120H284V112H300V120Z" fill="#F1FAFF"/>
<path d="M252 112H260V120H268V128H284V120H300V128H316V120H332V128H348V136H332V144H196V136H204V128H228V112H244V104H252V112Z" fill="#D7EDFC"/>
<path d="M188 144H332V136H356V144H364V152H172V144H180V136H188V144Z" fill="#B0DEF6"/>
<path d="M350 480H358V472H366V480H374V488H310V480H326V472H350V480Z" fill="#B0DEF6"/>
<path d="M326 480H318V472H326V480ZM358 480H350V472H342V464H358V480Z" fill="#D7EDFC"/>
<path d="M374 480H366V472H374V480ZM342 472H334V464H342V472ZM366 472H358V464H366V472ZM358 464H342V456H358V464Z" fill="#F1FAFF"/>
</svg>
