<svg width="397" height="68" viewBox="0 0 397 68" fill="none" xmlns="http://www.w3.org/2000/svg">
<rect x="24" y="12" width="349" height="4" fill="#BF4600"/>
<rect x="24" y="52" width="349" height="4" fill="#BF4600"/>
<rect x="24" y="64" width="349" height="4" fill="#902F00"/>
<rect x="24" y="56" width="349" height="8" fill="#FF8C00"/>
<rect x="20" y="16" width="4" height="4" fill="#BF4600"/>
<rect x="20" y="48" width="4" height="4" fill="#BF4600"/>
<rect x="16" y="20" width="4" height="4" fill="#BF4600"/>
<rect x="16" y="44" width="4" height="4" fill="#BF4600"/>
<rect x="12" y="24" width="4" height="20" fill="#BF4600"/>
<rect x="373" y="16" width="4" height="4" fill="#BF4600"/>
<rect x="373" y="8" width="8" height="8" fill="#FF8C00"/>
<rect x="373" y="4" width="8" height="4" fill="#902F00"/>
<rect x="373" y="60" width="8" height="4" fill="#902F00"/>
<rect x="381" y="8" width="4" height="4" fill="#902F00"/>
<rect x="381" y="56" width="4" height="4" fill="#902F00"/>
<rect x="385" y="12" width="4" height="4" fill="#902F00"/>
<rect x="385" y="52" width="4" height="4" fill="#902F00"/>
<rect x="389" y="16" width="4" height="8" fill="#902F00"/>
<rect x="389" y="44" width="4" height="8" fill="#902F00"/>
<rect x="373" y="52" width="8" height="8" fill="#FF8C00"/>
<rect x="377" y="48" width="8" height="8" fill="#FF8C00"/>
<rect x="381" y="44" width="8" height="8" fill="#FF8C00"/>
<rect x="377" y="12" width="8" height="8" fill="#FF8C00"/>
<rect x="16" y="24" width="365" height="20" fill="#F2F2F2"/>
<rect x="381" y="16" width="8" height="8" fill="#FF8C00"/>
<rect x="373" y="48" width="4" height="4" fill="#BF4600"/>
<rect x="377" y="20" width="4" height="4" fill="#BF4600"/>
<rect x="377" y="44" width="4" height="4" fill="#BF4600"/>
<rect x="381" y="24" width="4" height="20" fill="#BF4600"/>
<rect x="24" y="16" width="349" height="4" fill="#F2F2F2"/>
<rect x="20" y="20" width="357" height="4" fill="#F2F2F2"/>
<rect x="20" y="44" width="357" height="4" fill="#CCCCCC"/>
<rect x="24" y="48" width="349" height="4" fill="#BBBBBB"/>
<rect width="8" height="8" transform="matrix(-1 0 0 1 24 8)" fill="#FF8C00"/>
<rect width="8" height="4" transform="matrix(-1 0 0 1 24 4)" fill="#902F00"/>
<rect width="8" height="4" transform="matrix(-1 0 0 1 24 60)" fill="#902F00"/>
<rect width="4" height="4" transform="matrix(-1 0 0 1 16 8)" fill="#902F00"/>
<rect width="4" height="4" transform="matrix(-1 0 0 1 16 56)" fill="#902F00"/>
<rect width="4" height="4" transform="matrix(-1 0 0 1 12 12)" fill="#902F00"/>
<rect width="4" height="4" transform="matrix(-1 0 0 1 12 52)" fill="#902F00"/>
<rect width="4" height="8" transform="matrix(-1 0 0 1 8 16)" fill="#902F00"/>
<rect width="4" height="8" transform="matrix(-1 0 0 1 8 44)" fill="#902F00"/>
<rect width="8" height="8" transform="matrix(-1 0 0 1 24 52)" fill="#FF8C00"/>
<rect width="8" height="8" transform="matrix(-1 0 0 1 20 48)" fill="#FF8C00"/>
<rect width="8" height="8" transform="matrix(-1 0 0 1 16 44)" fill="#FF8C00"/>
<rect width="8" height="8" transform="matrix(-1 0 0 1 20 12)" fill="#FF8C00"/>
<rect width="8" height="8" transform="matrix(-1 0 0 1 16 16)" fill="#FF8C00"/>
<rect x="24" y="4" width="349" height="8" fill="#FF8C00"/>
<rect x="24" width="349" height="4" fill="#902F00"/>
<rect x="385" y="24" width="8" height="20" fill="#FF8C00"/>
<rect width="8" height="20" transform="matrix(-1 0 0 1 12 24)" fill="#FF8C00"/>
<rect x="393" y="24" width="4" height="20" fill="#902F00"/>
<rect width="4" height="20" transform="matrix(-1 0 0 1 4 24)" fill="#902F00"/>
</svg>
